<svg xmlns="http://www.w3.org/2000/svg" viewBox="0 0 31 26">
  <path fill="#351B4C" d="M29,0 C30.1045695,0 31,0.8954305 31,2 C31,3.0543618 30.1841222,3.91816512 29.1492623,3.99451426 L29,4 L2,4 C0.8954305,4 0,3.1045695 0,2 C0,0.945638205 0.815877791,0.0818348781 1.85073766,0.00548573643 L2,0 L29,0 Z" transform="translate(0 21.5)"/>
  <path fill="#351B4C" d="M29,0 C30.1045695,0 31,0.8954305 31,2 C31,3.0543618 30.1841222,3.91816512 29.1492623,3.99451426 L29,4 L2,4 C0.8954305,4 0,3.1045695 0,2 C0,0.945638205 0.815877791,0.0818348781 1.85073766,0.00548573643 L2,0 L29,0 Z" transform="translate(0 10.5)"/>
  <path fill="#351B4C" d="M29,0 C30.1045695,0 31,0.8954305 31,2 C31,3.0543618 30.1841222,3.91816512 29.1492623,3.99451426 L29,4 L2,4 C0.8954305,4 0,3.1045695 0,2 C0,0.945638205 0.815877791,0.0818348781 1.85073766,0.00548573643 L2,0 L29,0 Z"/>
</svg>
