<svg xmlns="http://www.w3.org/2000/svg" width="25" height="24" viewBox="0 0 25 24">
  <g fill="#351B4C" transform="translate(0 -1)">
    <path d="M26,10.75 C27.1045695,10.75 28,11.6454305 28,12.75 C28,13.8043618 27.1841222,14.6681651 26.1492623,14.7445143 L26,14.75 L-1,14.75 C-2.1045695,14.75 -3,13.8545695 -3,12.75 C-3,11.6956382 -2.18412221,10.8318349 -1.14926234,10.7554857 L-1,10.75 L26,10.75 Z" transform="rotate(-45 12.5 12.75)"/>
    <path d="M26,10.75 C27.1045695,10.75 28,11.6454305 28,12.75 C28,13.8043618 27.1841222,14.6681651 26.1492623,14.7445143 L26,14.75 L-1,14.75 C-2.1045695,14.75 -3,13.8545695 -3,12.75 C-3,11.6956382 -2.18412221,10.8318349 -1.14926234,10.7554857 L-1,10.75 L26,10.75 Z" transform="rotate(45 12.5 12.75)"/>
  </g>
</svg>
