<svg xmlns="http://www.w3.org/2000/svg" width="16" height="18" viewBox="0 0 16 18">
  <path fill="#FFF" d="M25.4822377,17.8617682 C25.4822377,17.5672497 25.3764088,17.3142659 25.164751,17.1028167 C24.9530932,16.8913676 24.6998597,16.7894189 24.4050506,16.7969706 C24.1102415,16.7894189 23.8570081,16.8913676 23.6453503,17.1028167 L20.9467132,19.8101211 L20.9467132,11.0651881 C20.9467132,10.7706697 20.8408843,10.5176859 20.6292265,10.3062367 C20.4175686,10.0947876 20.1643352,9.99283885 19.8695261,10.0003906 C19.574717,9.99283885 19.3214835,10.0947876 19.1098257,10.3062367 C18.8981679,10.5176859 18.7961186,10.7706697 18.8036778,11.0651881 L18.8036778,19.8101211 L16.0937019,17.1028167 C15.8820441,16.8913676 15.6288106,16.7894189 15.3340015,16.7969706 C15.0391924,16.7894189 14.785959,16.8913676 14.5743012,17.1028167 C14.3626434,17.3142659 14.2605941,17.5672497 14.2681533,17.8617682 C14.2605941,18.1562866 14.3626434,18.4092704 14.5743012,18.6207196 L19.1098257,23.1517729 C19.3214835,23.3632221 19.574717,23.4689467 19.8695261,23.4689467 C20.1643352,23.4689467 20.4175686,23.3632221 20.6292265,23.1517729 L25.164751,18.6207196 C25.3764088,18.4092704 25.4822377,18.1562866 25.4822377,17.8617682 L25.4822377,17.8617682 Z M27.75,26.9238748 L27.75,24.6583482 C27.75,24.3638297 27.6441711,24.1108459 27.4325133,23.8993967 C27.2208555,23.6879476 26.967622,23.5859989 26.6728129,23.5935506 C26.3780038,23.5859989 26.1247704,23.6879476 25.9131126,23.8993967 C25.7014547,24.1108459 25.5994054,24.3638297 25.6069646,24.6583482 L25.6069646,25.8590773 L14.1434263,25.8590773 L14.1434263,24.6583482 C14.1434263,24.3638297 14.0375974,24.1108459 13.8259396,23.8993967 C13.6142818,23.6879476 13.3610484,23.5859989 13.0662393,23.5935506 C12.7714302,23.5859989 12.5181967,23.6879476 12.3065389,23.8993967 C12.0948811,24.1108459 11.9928318,24.3638297 12.000391,24.6583482 L12.000391,26.9238748 C11.9928318,27.2183933 12.0948811,27.4713771 12.3065389,27.6828263 C12.5181967,27.8942754 12.7714302,28 13.0662393,28 L26.6728129,28 C26.967622,28 27.2208555,27.8942754 27.4325133,27.6828263 C27.6441711,27.4713771 27.75,27.2183933 27.75,26.9238748 Z" transform="translate(-12 -10)"/>
</svg>
