<svg xmlns="http://www.w3.org/2000/svg" xmlns:xlink="http://www.w3.org/1999/xlink" width="389" height="150"><defs><path id="a" d="M0 .736v97.86h49.009V.736H0z"/></defs><g fill="none" fill-rule="evenodd"><path fill="#351B4C" d="M165.244 23.51h12.262v33.5h21.427v10.745h-33.689zM230.222 50.31l-4.93-12.578-4.993 12.578h9.923zm-10.745-27.116h11.82l18.835 44.56h-13.147l-3.223-7.9h-17.066l-3.16 7.9H200.64l18.836-44.56zM275.86 57.894c3.729 0 5.878-1.454 5.878-4.045v-.126c0-2.402-1.896-3.982-6.005-3.982h-9.354v8.153h9.481zm-1.77-16.75c3.729 0 5.815-1.264 5.815-3.856v-.126c0-2.402-1.897-3.792-5.562-3.792h-7.964v7.774h7.711zm-19.657-17.635h22.69c5.563 0 9.482 1.392 12.073 3.983 1.77 1.77 2.845 4.108 2.845 7.142v.126c0 5.12-2.908 8.154-6.827 9.86 5.372 1.77 8.786 4.804 8.786 10.81v.125c0 7.585-6.194 12.2-16.75 12.2h-22.817V23.509zm-90.706 77.03v-.125c0-12.894 9.923-23.008 23.323-23.008 9.039 0 14.853 3.793 18.772 9.228l-9.227 7.143c-2.528-3.16-5.437-5.183-9.672-5.183-6.193 0-10.555 5.246-10.555 11.693v.127c0 6.635 4.362 11.819 10.555 11.819 4.615 0 7.332-2.15 9.988-5.373l9.227 6.574c-4.17 5.752-9.796 9.986-19.593 9.986-12.642 0-22.818-9.67-22.818-22.88m80.022 0v-.126c0-6.385-4.614-11.946-11.377-11.946-6.7 0-11.188 5.435-11.188 11.819v.127c0 6.383 4.614 11.946 11.315 11.946 6.763 0 11.25-5.436 11.25-11.82m-35.143 0v-.126c0-12.705 10.24-23.008 23.893-23.008 13.652 0 23.766 10.176 23.766 22.88v.128c0 12.704-10.24 23.006-23.893 23.006s-23.766-10.175-23.766-22.88m71.3 11.124c7.332 0 12.2-4.045 12.2-11.187v-.127c0-7.08-4.868-11.187-12.2-11.187h-4.993v22.501h4.992zM262.65 78.291h17.065c15.802 0 24.966 9.102 24.966 21.87v.126c0 12.767-9.291 22.25-25.219 22.25h-16.812V78.29zM311.006 78.291h35.586v10.43h-23.45v6.699h21.237v9.671h-21.237v7.015h23.765v10.43h-35.901zM349.816 115.963l6.827-8.154c4.36 3.476 9.227 5.309 14.347 5.309 3.287 0 5.057-1.138 5.057-3.034v-.126c0-1.833-1.453-2.844-7.459-4.235-9.418-2.15-16.686-4.803-16.686-13.905v-.126c0-8.218 6.51-14.159 17.128-14.159 7.523 0 13.4 2.023 18.204 5.878l-6.13 8.659c-4.046-2.845-8.47-4.361-12.39-4.361-2.97 0-4.423 1.264-4.423 2.844v.126c0 2.023 1.516 2.909 7.647 4.3 10.177 2.212 16.497 5.498 16.497 13.778v.126c0 9.038-7.142 14.412-17.887 14.412-7.838 0-15.296-2.465-20.732-7.332M113.231 24.994v.001l-.407 1.115-2.336 6.394a2.13 2.13 0 0 1-1.537 1.345c-.4.088-.82.066-1.21-.077l-4.322-1.603-.748-.278-1.995 5.375-.375 1.01 20.236 34.894L92.16 122.1h20.633l28.378-48.93-27.94-48.176z"/><g transform="translate(0 23.504)"><mask id="b" fill="#fff"><use xlink:href="#a"/></mask><path fill="#351B4C" mask="url(#b)" d="M28.377.736L0 49.667l28.377 48.929h.103l8.011-21.586-15.859-27.343L49.009.736z"/></g><path fill="#351B4C" d="M77.818 86.581l-18.21 49.067c-2.123 5.712-7.64 9.548-13.731 9.548-1.735 0-3.448-.308-5.413-1.034a14.545 14.545 0 0 1-8.213-7.622 14.554 14.554 0 0 1-.418-11.204l1.201-3.236 38.6-104.007a2.131 2.131 0 0 0-1.26-2.742l-4.331-1.61 2.885-7.898 41.17 15.283-2.885 7.897-17.329-6.43a2.132 2.132 0 0 0-2.743 1.26 2.133 2.133 0 0 0 1.259 2.742l10.268 3.81-19.364 52.173m34.27-64.718L68.402 1.095a2.132 2.132 0 0 0-2.748 1.266L61.304 14.27a2.137 2.137 0 0 0 1.263 2.736l4.322 1.605-30.397 81.903L28.48 122.1l-.65 1.752a18.797 18.797 0 0 0 .539 14.469c2.107 4.59 5.874 8.088 10.93 9.96a18.835 18.835 0 0 0 6.578 1.184c7.867 0 14.993-4.953 17.733-12.334l39.06-105.24 5.071 1.88c.391.144.81.166 1.21.078.146-.033.29-.078.427-.14a2.01 2.01 0 0 0 .927-.826c.4-.714 4.533-12.287 4.533-12.287a2.137 2.137 0 0 0-1.263-2.736"/><path fill="#351B4C" d="M79.41 69.264c-3.327.687-7.011-1.54-10.846-3.085-3.306-1.333-6.723-2.16-10.12-.177-1.247.73-2.172 1.933-2.681 3.286l-21.178 56.384a11.913 11.913 0 0 0 .338 9.198c1.355 2.957 3.823 5.174 7.15 6.413 1.352.504 2.757.76 4.183.76 5 0 9.527-3.154 11.27-7.84l23.632-62.976c.42-1.12-.577-2.205-1.748-1.963m-8.032-9.63a5.697 5.697 0 1 0 0-11.395 5.697 5.697 0 0 0 0 11.395m12.789-20.07a3.824 3.824 0 1 0-.002 7.65 3.824 3.824 0 0 0 .002-7.65m-4.358-7.399a2.734 2.734 0 1 0 0-5.467 2.734 2.734 0 0 0 0 5.467"/></g></svg>