<svg xmlns="http://www.w3.org/2000/svg" viewBox="0 0 372 86">
  <path fill="#351B4C" fill-rule="evenodd" d="M115.798316,28.5152545 L115.798316,70.4304818 L134.292225,70.4304818 C135.890066,70.4304818 137.183975,71.7195045 137.183975,73.3202773 L137.183975,82.4773227 C137.183975,84.0702773 135.890066,85.3661409 134.292225,85.3661409 L80.3242932,85.3661409 C78.7264523,85.3661409 77.4384068,84.0702773 77.4384068,82.4802545 L77.4384068,73.3202773 C77.4384068,71.7195045 78.7264523,70.4304818 80.3242932,70.4304818 L98.8182023,70.4304818 L98.8182023,31.4011409 C98.8182023,29.8091636 100.114066,28.5152545 101.706043,28.5152545 L115.798316,28.5152545 Z M27.5837182,28.5439864 L42.5467409,67.2781909 L56.6468318,31.2520091 C57.1999682,29.7577591 58.9483091,28.5439864 60.5383318,28.5439864 L60.5383318,28.5439864 L74.7429909,28.5439864 L53.6211955,82.6682818 C53.0446045,84.1556909 51.2845364,85.3636 49.6915818,85.3665318 L49.6915818,85.3665318 L35.6481727,85.3665318 C34.0532636,85.3636 32.2931955,84.1556909 31.7185591,82.6682818 L31.7185591,82.6682818 L11.4939,31.2324636 C10.9094909,29.7489636 11.7264909,28.5439864 13.3262864,28.5439864 L13.3262864,28.5439864 L27.5837182,28.5439864 Z M164.461416,0.000390909091 C166.059257,0.000390909091 168.206325,0.965936364 169.26178,2.16114091 L169.26178,2.16114091 L209.551802,67.9775273 C210.385416,69.3290955 212.341916,70.4304818 213.935848,70.4304818 L213.935848,70.4304818 L219.232666,70.4304818 C220.826598,70.4304818 222.118552,71.7195045 222.118552,73.3202773 L222.118552,73.3202773 L222.118552,82.4802545 C222.118552,84.0702773 220.826598,85.3661409 219.232666,85.3661409 L219.232666,85.3661409 L207.457507,85.3661409 C205.86162,85.3661409 203.712598,84.4005955 202.659098,83.2044136 L202.659098,83.2044136 L162.369075,17.3860727 C161.531552,16.0335273 159.573098,14.9389818 157.979166,14.9389818 L157.979166,14.9389818 L152.694075,14.9389818 C151.100143,14.9389818 149.802325,13.64605 149.802325,12.0521182 L149.802325,12.0521182 L149.802325,2.88627727 C149.802325,1.29527727 151.09428,0.000390909091 152.694075,0.000390909091 L152.694075,0.000390909091 Z M154.726802,29.8775727 C155.525234,29.8775727 156.044166,30.4258227 156.46537,31.10405 L156.46537,31.10405 L165.524689,45.8325273 L165.48462,82.4802545 C165.48462,84.0702773 164.192666,85.3661409 162.594825,85.3661409 L162.594825,85.3661409 L152.694075,85.3661409 C151.100143,85.3661409 149.80428,84.0702773 149.80428,82.4802545 L149.80428,82.4802545 L149.80428,32.7663909 C149.80428,31.1695273 150.803052,29.8775727 152.031484,29.8775727 L152.031484,29.8775727 Z M270.129225,70.4304818 C271.725111,70.4304818 273.017066,71.7195045 273.017066,73.3202773 L273.017066,73.3202773 L273.017066,82.4802545 C273.017066,84.0702773 271.725111,85.3661409 270.129225,85.3661409 L270.129225,85.3661409 L258.926748,85.3661409 C257.328907,85.3661409 256.036952,84.0702773 256.036952,82.4802545 L256.036952,82.4802545 L256.036952,70.4304818 Z M363.930207,70.4277455 C365.524139,70.4277455 367.282252,71.6346773 367.84907,73.1259955 L367.84907,73.1259955 L371.524593,82.7501773 C372.196957,84.1965409 371.45423,85.3663364 369.860298,85.3663364 L369.860298,85.3663364 L358.347048,85.3663364 C356.747252,85.3663364 354.934411,84.1867682 354.287457,82.7286773 L354.287457,82.7286773 L349.515434,70.4277455 Z M308.830495,70.4277455 L304.058473,82.7286773 C303.413473,84.1867682 301.596723,85.3663364 300.000836,85.3663364 L288.487586,85.3663364 C286.889745,85.3663364 286.148973,84.1965409 286.825245,82.7501773 L290.496859,73.1259955 C291.065632,71.6346773 292.821791,70.4277455 294.415723,70.4277455 L308.830495,70.4277455 Z M291.514689,9.77272727e-05 C293.10862,9.77272727e-05 294.400575,1.29498409 294.400575,2.88598409 L294.400575,12.051825 C294.400575,13.6457568 293.10862,14.9386886 291.514689,14.9386886 L273.02078,14.9386886 L273.02078,53.9680295 C273.02078,55.5600068 271.724916,56.8539159 270.134893,56.8539159 L256.038711,56.8539159 L256.038711,14.9386886 L237.542848,14.9386886 C235.948916,14.9386886 234.656961,13.6457568 234.656961,12.051825 L234.656961,2.88891591 C234.656961,1.29498409 235.948916,0.00302954545 237.542848,0.00302954545 L291.514689,9.77272727e-05 Z M336.124061,0.0274613636 C337.720925,0.0303931818 339.480993,1.23830227 340.053675,2.72864318 L340.053675,2.72864318 L360.282243,54.1644614 C360.866652,55.6450295 360.047698,56.8539159 358.449857,56.8539159 L358.449857,56.8539159 L344.19047,56.8539159 L329.227448,18.1158023 L315.127357,54.1458932 C314.572266,55.6391659 312.827834,56.8539159 311.233902,56.8539159 L311.233902,56.8539159 L297.029243,56.8539159 L318.154948,2.72864318 C318.725675,1.23830227 320.491607,0.0303931818 322.08163,0.0274613636 L322.08163,0.0274613636 Z M219.232764,9.77272727e-05 C220.826695,9.77272727e-05 222.11865,1.29498409 222.11865,2.88598409 L222.11865,2.88598409 L222.11865,52.6027795 C222.11865,54.1957341 221.123786,55.4915977 219.891445,55.4915977 L219.891445,55.4915977 L217.200036,55.4915977 C216.39965,55.4915977 215.878764,54.9433477 215.461468,54.2612114 L215.461468,54.2612114 L206.398241,39.5366432 L206.442218,2.88598409 C206.442218,1.29498409 207.730264,9.77272727e-05 209.328105,9.77272727e-05 L209.328105,9.77272727e-05 Z M13.4289977,0.0276568182 C15.0268386,0.0276568182 16.8396795,1.21015682 17.4846795,2.669225 L17.4846795,2.669225 L22.2567023,14.9662477 L7.84388409,14.9662477 C6.24799773,14.9662477 4.49086136,13.7593159 3.92306591,12.2679977 L3.92306591,12.2679977 L0.247543182,2.64381591 C-0.424820455,1.20038409 0.319861364,0.0276568182 1.91379318,0.0276568182 L1.91379318,0.0276568182 Z M83.2866023,0.0276568182 C84.8824886,0.0276568182 85.6271705,1.20038409 84.9489432,2.64381591 L81.275375,12.2679977 C80.7085568,13.7593159 78.9504432,14.9662477 77.3565114,14.9662477 L62.9417386,14.9662477 L67.7098523,2.669225 C68.3607159,1.21015682 70.1755114,0.0276568182 71.7733523,0.0276568182 L83.2866023,0.0276568182 Z M112.916241,9.77272727e-05 C114.512127,9.77272727e-05 115.802127,1.29498409 115.802127,2.88598409 L115.802127,2.88598409 L115.802127,14.9386886 L101.705945,14.9386886 C100.113968,14.9386886 98.8200591,13.6457568 98.8200591,12.051825 L98.8200591,12.051825 L98.8200591,2.88598409 C98.8200591,1.29498409 100.113968,9.77272727e-05 101.705945,9.77272727e-05 L101.705945,9.77272727e-05 Z"/>
</svg>
