<svg xmlns="http://www.w3.org/2000/svg" viewBox="0 0 402 114">
  <path fill="#351B4C" fill-rule="evenodd" d="M39.1182083,1.19839583 C40.4574792,1.19839583 42.5166979,1.32657292 42.5166979,1.32657292 C49.8419583,2.12438542 55.4170625,4.46511458 60.3776354,7.68990625 L60.3776354,7.68990625 L60.3764375,2.47297917 L80.8620104,2.47297917 L80.8620104,76.7617813 C80.8620104,87.9431354 78.6386771,96.3884479 71.8273229,103.22975 C64.4170104,110.674802 52.1227917,115.27001 37.6112292,114.346417 C26.8623229,113.661208 18.4864896,109.009698 12.0177396,102.83324 L12.0177396,102.83324 L25.3840937,88.4570417 C25.3840937,88.4570417 30.7831042,94.8515208 40.316125,94.734125 C55.9441458,94.5436563 58.4106562,86.0288646 58.5663854,79.25225 C58.5603958,79.1875625 58.5663854,78.8725104 58.5663854,78.8725104 L58.5663854,78.8725104 L58.3447708,79.0258438 C54.4647187,81.5139167 48.5074792,83.7120938 42.2926875,84.067875 C35.7712292,84.4380313 27.47925,83.0724063 20.0701354,79.0102708 C9.05169792,72.9655833 1.84023958,62.2621979 0.157166667,46.2496458 C0.157166667,46.2496458 -0.00335416667,43.7627708 0.00018012872,42.5732396 C0.00383333333,41.1752708 0.157166667,39.3724063 0.157166667,39.3724063 C1.05201042,28.6965729 5.62326042,19.8954792 11.5265937,13.4758438 C17.5041979,6.97594792 25.8620625,2.41667708 36.0503437,1.32657292 C36.0503437,1.32657292 37.8316458,1.19839583 39.1182083,1.19839583 Z M108.728906,2.47321875 L108.728906,46.5481667 C108.728906,46.5481667 108.442604,53.4038438 111.569167,57.6157188 C115.08625,62.3522813 119.735365,63.4699375 122.812812,63.4699375 C125.823177,63.4699375 130.819687,61.9006667 134.123542,57.5582188 C137.081326,53.6698026 137.399913,46.799 137.410347,46.5548541 L137.410625,2.47321875 L157.899792,2.47321875 L157.899792,82.7863438 L137.410625,82.7863438 L137.410625,79.7136875 C132.108646,82.5347813 126.038802,84.6467083 117.646198,84.0669167 C108.627083,83.4451979 102.057708,79.1003542 97.2540625,73.7540521 C93.0074479,69.0210833 88.2397396,60.0594688 88.2397396,47.5472292 L88.2984375,2.47321875 L108.728906,2.47321875 Z M359.950255,1.19809868 C361.254461,1.20809189 362.949823,1.32801042 362.949823,1.32801042 C369.120292,1.95571875 374.982896,3.94186458 379.228312,6.59764583 C380.428625,7.34873958 380.809562,7.50207292 380.809562,7.50207292 L380.809562,7.50207292 L380.809562,2.47321875 L401.296333,2.47321875 L401.296333,82.7863437 L380.808365,82.7863437 L380.808365,77.6951979 C380.808365,77.6951979 380.154302,78.1623854 379.949458,78.3013438 C374.4055,82.0448333 367.742687,84.0249896 360.05326,84.0675555 C351.501333,84.1136354 344.651646,81.5932187 339.319719,78.1060833 C328.706177,71.1689479 320.371073,59.3874375 320.371073,42.8118646 C320.371073,30.5068646 325.030969,21.6338958 331.069667,14.6200937 C337.22576,7.46972917 345.048156,2.51754167 356.487062,1.32801042 L356.487062,1.32801042 C356.48826,1.32801042 358.061125,1.1974375 359.782531,1.1974375 Z M201.783071,1.19809868 C203.086314,1.20809189 204.782776,1.32801042 204.782776,1.32801042 C210.952047,1.95571875 216.814651,3.94186458 221.060068,6.59764583 C222.261578,7.34873958 222.642516,7.50207292 222.642516,7.50207292 L222.642516,7.50207292 L222.642516,2.47321875 L243.129286,2.47321875 L243.129286,82.7863437 L222.641318,82.7863437 L222.641318,77.6951979 C222.641318,77.6951979 221.988453,78.1623854 221.782411,78.3013438 C216.238453,82.0448333 209.575641,84.0249896 201.886214,84.0675555 C193.334286,84.1136354 186.484599,81.5932187 181.152672,78.1060833 C170.53913,71.1689479 162.202828,59.3874375 162.202828,42.8118646 C162.202828,30.5068646 166.862724,21.6338958 172.90262,14.6200937 C179.059911,7.46972917 186.882307,2.51754167 198.318818,1.32801042 L198.318818,1.32801042 C198.320016,1.32801042 199.894078,1.1974375 201.615484,1.1974375 Z M268.065599,2.47321875 C274.080339,19.5171771 280.225651,36.4245729 286.125391,53.5859271 C287.899505,49.590875 289.507109,45.2699896 291.026068,40.9766562 C295.501484,28.359 299.93138,15.3699896 304.404401,2.47321875 L326.255599,2.47321875 C316.891484,29.3676458 307.167995,55.7553542 297.940443,82.7863437 L274.755964,82.7863437 C265.726068,56.5423854 256.34638,30.7859792 247.348828,4.50488542 C247.195495,4.0580625 247.195495,4.0580625 246.664818,2.47321875 L268.065599,2.47321875 Z M49.6490937,24.4763125 C46.74175,22.9286042 42.1153958,22.1140208 37.8352396,22.6435 C35.5759687,22.9214167 33.3765937,23.4592813 31.8157083,24.2487083 L31.8157083,24.2487083 L31.5034302,24.4100702 C25.9001638,27.371447 21.2736496,33.3914261 20.6702917,40.5188125 C19.1034167,58.9727188 38.073625,68.5512604 50.9871667,60.4617292 C55.9501354,57.3495417 60.5728958,50.7598021 60.5728958,42.811625 C60.5728958,34.1303229 55.036125,27.344125 49.6490937,24.4763125 Z M378.556281,33.1854062 C375.284771,27.137125 367.769042,21.4434271 358.045552,22.6425417 C352.562687,23.3193646 348.761698,26.1176979 345.784875,29.7473854 L345.784875,29.7473854 C343.108729,33.0069167 340.539198,37.6141042 340.87701,43.9570729 C341.322635,52.2059271 346.00649,58.1392083 351.579198,61.1459792 C357.174667,64.1659271 364.60774,63.9191562 369.637792,61.3771771 C377.927375,57.1868646 384.602167,44.3667604 378.556281,33.1854062 Z M220.389234,33.1854062 C217.117724,27.137125 209.600797,21.4434271 199.878505,22.6425417 C194.394443,23.3193646 190.593453,26.1176979 187.61663,29.7473854 C184.941682,33.0069167 182.372151,37.6141042 182.711161,43.9570729 C183.155589,52.2059271 187.839443,58.1392083 193.412151,61.1459792 C199.00762,64.1659271 206.440693,63.9191562 211.470745,61.3771771 C219.761526,57.1868646 226.436318,44.3667604 220.389234,33.1854062 Z" transform="translate(0 -1)"/>
</svg>
