<svg xmlns="http://www.w3.org/2000/svg" viewBox="0 0 389 150">
  <path fill="#351B4C" fill-rule="evenodd" d="M66.7636538,1.15634615 C67.2809615,0.918846154 67.8684615,0.898653846 68.4001923,1.09480769 L68.4001923,1.09480769 L113.574231,17.8601923 C114.676154,18.2688462 115.239615,19.4909615 114.837692,20.5957692 C114.837692,20.5957692 114.115936,22.6164856 113.246492,25.0212995 L141.17,73.17 L112.792115,122.099808 L92.1594231,122.099808 L120.537308,73.17 L100.300769,38.2757692 L100.675769,37.2661538 L102.670962,31.8911538 L102.670385,31.8909615 L63.6098077,137.131346 C60.8694231,144.512115 53.7434615,149.465 45.8761538,149.465 C43.6328846,149.465 41.4184615,149.068846 39.2982692,148.281346 C34.2425,146.409231 30.4751923,142.911154 28.3684615,138.320769 C26.2617308,133.724615 26.0723077,128.589038 27.83,123.851538 L27.83,123.851538 L28.48,122.099615 L36.4915385,100.514038 L66.8886538,18.6111538 L62.5665385,17.0063462 C61.4646154,16.5967308 60.9011538,15.3746154 61.3040385,14.2698077 L61.3040385,14.2698077 L65.6521154,2.36115385 C65.8482692,1.8275 66.2463462,1.39384615 66.7636538,1.15634615 Z M68.9271154,5.84288462 L66.0425,13.74 L70.3742308,15.3505769 C71.4819231,15.7592308 72.0444231,16.9890385 71.6338462,18.0928846 L71.6338462,18.0928846 L33.0338462,122.099615 L31.8328846,125.336154 C30.4713462,129.005385 30.6194231,132.983269 32.2501923,136.54 C33.88,140.091923 36.7963462,142.8025 40.4636538,144.162115 C42.4280769,144.888077 44.1415385,145.195769 45.8761538,145.195769 C51.9684615,145.195769 57.4848077,141.360192 59.6069231,135.647692 L59.6069231,135.647692 L77.8175,86.5813462 L79.3030769,82.5775 L98.6675,30.4053846 L88.3992308,26.5948077 C87.2944231,26.1861538 86.73,24.9563462 87.1405769,23.8525 C87.5511538,22.7467308 88.7809615,22.1794231 89.8838462,22.5928846 L89.8838462,22.5928846 L107.212692,29.0226923 L110.098269,21.1255769 L68.9271154,5.84288462 Z M68.5639423,66.1786538 C72.3985577,67.7248077 76.0831731,69.9507692 79.4100962,69.2642308 C80.5394231,69.0305769 81.5069209,70.0307584 81.1978269,71.1069051 L81.1581731,71.2267308 L57.5264423,134.202692 C55.7831731,138.889231 51.2552885,142.042115 46.25625,142.042115 C44.8302885,142.042115 43.4245192,141.787308 42.0735577,141.2825 C38.7456731,140.044038 36.2783654,137.826731 34.9225962,134.87 C33.6319157,132.063047 33.4738166,128.936945 34.4611209,126.020817 L34.5850962,125.671923 L55.7629808,69.2882692 C56.2716346,67.9344231 57.1966346,66.7315385 58.4447115,66.0017308 C61.8408654,64.0190385 65.2581731,64.8459615 68.5639423,66.1786538 Z M187.050385,77.4059615 C196.088846,77.4059615 201.903269,81.1992308 205.8225,86.6338462 L196.594615,93.7771154 C194.066731,90.6165385 191.158077,88.5934615 186.923462,88.5934615 C180.730192,88.5934615 176.367692,93.8396154 176.367692,100.286731 L176.367692,100.413654 C176.367692,107.049231 180.730192,112.232885 186.923462,112.232885 C191.537885,112.232885 194.255192,110.083846 196.910962,106.859808 L206.137885,113.433846 C201.967692,119.185769 196.341731,123.420385 186.544615,123.420385 C173.903269,123.420385 163.727308,113.750192 163.727308,100.539615 L163.727308,100.413654 C163.727308,87.5194231 173.650385,77.4059615 187.050385,77.4059615 Z M232.499135,77.4059615 C246.151058,77.4059615 256.264519,87.5819231 256.264519,100.286731 L256.264519,100.413654 C256.264519,113.1175 246.024135,123.420385 232.372212,123.420385 C218.719327,123.420385 208.605865,113.244423 208.605865,100.539615 L208.605865,100.413654 C208.605865,87.7088462 218.845288,77.4059615 232.499135,77.4059615 Z M369.030385,77.5328846 C376.5525,77.5328846 382.430385,79.5559615 387.234231,83.4107692 L381.103462,92.0694231 C377.058269,89.2251923 372.633269,87.7088462 368.714038,87.7088462 C365.743846,87.7088462 364.290962,88.9732692 364.290962,90.5530769 L364.290962,90.6790385 C364.290962,92.7021154 365.807308,93.5876923 371.938077,94.9780769 C382.115,97.1905769 388.435192,100.477115 388.435192,108.756923 L388.435192,108.882885 C388.435192,117.921346 381.292885,123.294423 370.547692,123.294423 C362.710192,123.294423 355.251538,120.83 349.815962,115.962692 L356.642885,107.808846 C361.003462,111.284808 365.869808,113.1175 370.99,113.1175 C374.276538,113.1175 376.046731,111.98 376.046731,110.083846 L376.046731,109.957885 C376.046731,108.125192 374.593846,107.113654 368.588077,105.723269 C359.169808,103.573269 351.901538,100.919423 351.901538,91.8175 L351.901538,91.6915385 C351.901538,83.4742308 358.412115,77.5328846 369.030385,77.5328846 Z M279.715962,78.2908654 C295.517885,78.2908654 304.682308,87.3927885 304.682308,100.160096 L304.682308,100.287019 C304.682308,113.054327 295.390962,122.536058 279.463077,122.536058 L262.650577,122.536058 L262.650577,78.2908654 L279.715962,78.2908654 Z M346.591635,78.2908654 L346.591635,88.7206731 L323.141635,88.7206731 L323.141635,95.4197115 L344.379135,95.4197115 L344.379135,105.090865 L323.141635,105.090865 L323.141635,112.10625 L346.907019,112.10625 L346.907019,122.536058 L311.006058,122.536058 L311.006058,78.2908654 L346.591635,78.2908654 Z M49.0093269,24.24 L20.6324038,73.1707692 L36.4910577,100.514038 L28.4795192,122.099615 L28.3766346,122.099615 L-0.000288461538,73.1707692 L28.3766346,24.24 L49.0093269,24.24 Z M232.372212,88.4675 C225.672212,88.4675 221.18375,93.9030769 221.18375,100.286731 L221.18375,100.413654 C221.18375,106.797308 225.798173,112.359808 232.499135,112.359808 C239.261635,112.359808 243.749135,106.924231 243.749135,100.539615 L243.749135,100.413654 C243.749135,94.0290385 239.134712,88.4675 232.372212,88.4675 Z M279.905385,89.1629808 L274.913077,89.1629808 L274.913077,111.663942 L279.905385,111.663942 C287.238077,111.663942 292.105385,107.61875 292.105385,100.476442 L292.105385,100.349519 C292.105385,93.2706731 287.238077,89.1629808 279.905385,89.1629808 Z M177.50625,23.5095192 L177.50625,57.0095192 L198.933173,57.0095192 L198.933173,67.7547115 L165.24375,67.7547115 L165.24375,23.5095192 L177.50625,23.5095192 Z M231.296827,23.1941346 L250.132404,67.7547115 L236.985288,67.7547115 L233.762212,59.85375 L216.695865,59.85375 L213.535288,67.7547115 L200.641058,67.7547115 L219.476635,23.1941346 L231.296827,23.1941346 Z M277.123654,23.5092308 C282.686154,23.5092308 286.605385,24.9005769 289.195769,27.4919231 C290.965962,29.2621154 292.040962,31.5996154 292.040962,34.6342308 L292.040962,34.7601923 C292.040962,39.8803846 289.133269,42.9140385 285.214038,44.6207692 C290.586154,46.39 293.999615,49.4236538 293.999615,55.4294231 L293.999615,55.5553846 C293.999615,63.14 287.806346,67.7544231 277.249615,67.7544231 L254.433269,67.7544231 L254.433269,23.5092308 L277.123654,23.5092308 Z M71.3777885,48.2386538 C74.5239423,48.2386538 77.0749038,50.7905769 77.0749038,53.9367308 C77.0749038,57.0828846 74.5239423,59.6338462 71.3777885,59.6338462 C68.2316346,59.6338462 65.6806731,57.0828846 65.6806731,53.9367308 C65.6806731,50.7905769 68.2316346,48.2386538 71.3777885,48.2386538 Z M275.733269,49.7409615 L266.379423,49.7409615 L266.379423,57.8938462 L275.860192,57.8938462 C279.589038,57.8938462 281.738077,56.44 281.738077,53.8486538 L281.738077,53.7226923 C281.738077,51.3207692 279.841923,49.7409615 275.733269,49.7409615 Z M225.292019,37.7316346 L220.29875,50.3095192 L230.221827,50.3095192 L225.292019,37.7316346 Z M84.1665385,39.5645192 C86.2780769,39.5645192 87.9915385,41.2760577 87.9915385,43.3895192 C87.9915385,45.5010577 86.2780769,47.2135577 84.1665385,47.2135577 C82.0540385,47.2135577 80.3415385,45.5010577 80.3415385,43.3895192 C80.3415385,41.2760577 82.0540385,39.5645192 84.1665385,39.5645192 Z M274.342885,33.3698077 L266.379423,33.3698077 L266.379423,41.1438462 L274.09,41.1438462 C277.818846,41.1438462 279.905385,39.8803846 279.905385,37.2880769 L279.905385,37.1621154 C279.905385,34.7601923 278.008269,33.3698077 274.342885,33.3698077 Z M79.8086538,26.6978846 C81.3182692,26.6978846 82.5423077,27.9228846 82.5423077,29.4315385 C82.5423077,30.9411538 81.3182692,32.1651923 79.8086538,32.1651923 C78.2990385,32.1651923 77.075,30.9411538 77.075,29.4315385 C77.075,27.9228846 78.2990385,26.6978846 79.8086538,26.6978846 Z"/>
</svg>
