<svg xmlns="http://www.w3.org/2000/svg" xmlns:xlink="http://www.w3.org/1999/xlink" width="402" height="115"><defs><path id="a" d="M81.452 83.405V.535H.527v82.87h80.925z"/><path id="c" d="M81.411.535H.484v82.87h80.927V.535z"/></defs><g fill="none" fill-rule="evenodd"><g transform="translate(319.844 .662)"><mask id="b" fill="#fff"><use xlink:href="#a"/></mask><path fill="#351B4C" d="M49.794 60.715c-5.03 2.542-12.463 2.789-18.059-.231-5.572-3.007-10.256-8.94-10.702-17.19-.338-6.342 2.232-10.95 4.907-14.209h.001c2.977-3.63 6.778-6.428 12.26-7.105 9.724-1.199 17.24 4.495 20.512 10.543 6.045 11.182-.63 24.002-8.919 28.192zM60.966 1.811V6.84s-.381-.153-1.581-.905C55.139 3.28 49.277 1.294 43.106.665c0 0-1.846-.13-3.167-.13-1.722 0-3.294.13-3.294.13h-.002c-11.439 1.19-19.261 6.143-25.417 13.293C5.187 20.972.527 29.845.527 42.15c0 16.575 8.335 28.357 18.949 35.294 5.332 3.487 12.182 6.007 20.734 5.96 7.689-.041 14.352-2.021 19.896-5.765.205-.139.859-.606.859-.606v5.091h20.488V1.811H60.966z" mask="url(#b)"/></g><path fill="#351B4C" d="M88.298 2.473h20.43v44.075s-.285 6.856 2.841 11.068c3.517 4.736 8.166 5.854 11.244 5.854 3.01 0 8.007-1.57 11.31-5.912 3.012-3.959 3.288-11.01 3.288-11.01V2.473H157.9v80.313h-20.49v-3.072c-5.301 2.82-11.371 4.933-19.764 4.353-9.019-.622-15.588-4.967-20.392-10.313-4.247-4.733-9.014-13.695-9.014-26.207l.058-45.074zm179.768 0c6.014 17.044 12.16 33.952 18.06 51.113 1.774-3.995 3.381-8.316 4.9-12.61 4.475-12.617 8.905-25.606 13.378-38.503h21.852c-9.365 26.895-19.088 53.282-28.316 80.313h-23.184c-9.03-26.244-18.41-52-27.407-78.281-.154-.447-.154-.447-.684-2.032h21.4z"/><g transform="translate(161.719 .662)"><mask id="d" fill="#fff"><use xlink:href="#c"/></mask><path fill="#351B4C" d="M49.752 60.715c-5.03 2.542-12.463 2.789-18.059-.231-5.572-3.007-10.256-8.94-10.7-17.19-.34-6.342 2.23-10.95 4.905-14.209 2.977-3.63 6.778-6.428 12.262-7.105 9.722-1.199 17.239 4.495 20.51 10.543 6.048 11.182-.627 24.002-8.918 28.192zM60.924 1.811V6.84s-.381-.153-1.583-.905C55.096 3.28 49.233 1.294 43.064.665c0 0-1.847-.13-3.167-.13-1.722 0-3.296.13-3.296.13-11.437 1.19-19.26 6.143-25.417 13.293C5.144 20.972.484 29.845.484 42.15c0 16.575 8.336 28.357 18.95 35.294 5.332 3.487 12.182 6.007 20.733 5.96 7.69-.041 14.353-2.021 19.897-5.765.206-.139.859-.606.859-.606v5.091H81.41V1.811H60.924z" mask="url(#d)"/></g><path fill="#351B4C" d="M50.987 60.462c-12.913 8.09-31.884-1.49-30.317-19.943.615-7.26 5.403-13.37 11.146-16.27 1.56-.79 3.76-1.328 6.02-1.605 4.28-.53 8.906.285 11.813 1.832 5.387 2.868 10.924 9.654 10.924 18.336 0 7.948-4.623 14.538-9.586 17.65zm9.39-57.989V7.69c-4.96-3.225-10.535-5.566-17.86-6.363 0 0-2.06-.129-3.399-.129-1.286 0-3.068.129-3.068.129-10.188 1.09-18.546 5.649-24.523 12.149-5.904 6.42-10.475 15.22-11.37 25.896 0 0-.153 1.803-.157 3.201-.003 1.19.157 3.677.157 3.677C1.84 62.262 9.052 72.966 20.07 79.01c7.41 4.062 15.701 5.428 22.223 5.058 6.214-.356 12.172-2.554 16.052-5.042l.221-.153s-.006.315 0 .38c-.155 6.776-2.622 15.29-18.25 15.481-9.533.118-14.932-6.277-14.932-6.277l-13.366 14.376c6.468 6.177 14.844 10.828 25.593 11.513 14.512.924 26.806-3.671 34.216-11.116 6.812-6.842 9.035-15.287 9.035-26.468V2.473H60.376z"/></g></svg>